Coordinates
version=1
nRows=12
nColumns=33
inDegrees=yes

Units are S.I. units (second, meters, Newtons, ...)
Angles are in degrees.

endheader
time	ground_thorax_rot_x	ground_thorax_rot_y	ground_thorax_rot_z	ground_thorax_tx	ground_thorax_ty	ground_thorax_tz	clav_prot_r	clav_elev_r	scapula_abduction_r	scapula_elevation_r	scapula_upward_rot_r	scapula_winging_r	shoulder_elv_r	plane_of_elev_r	axial_rot_r	elbow_flexion_r	pro_sup_r	wrist_flex_r	wrist_dev_r	clav_prot_l	clav_elev_l	scapula_abduction_l	scapula_elevation_l	scapula_upward_rot_l	scapula_winging_l	shoulder_elv_l	plane_of_elev_l	axial_rot_l	elbow_flexion_l	pro_sup_l	wrist_flex_l	wrist_dev_l
      1.16000000	     -4.77164788	     -8.62489245	     90.00000000	     -0.00481584	      0.96432772	      0.02176623	     29.59199543	     20.28643869	     45.00000000	     45.00000000	    -43.88327570	     -5.95805889	      4.44907672	    -82.70294941	     21.79413488	     68.89120190	     46.47463884	     50.18861055	    -15.98387792	     29.10977465	     21.91372865	    -45.00000000	    -45.00000000	    -43.49362992	      5.91438384	    -11.99997646	    -90.00000000	     18.26805590	     66.64575083	     45.66828527	    -25.61759887	    -24.99999983
      1.17000000	     -4.88950711	     -8.55017849	     90.00000000	     -0.00497734	      0.96450889	      0.02184305	     29.58000876	     20.26572330	     45.00000000	     45.00000000	    -43.92683236	     -5.95125588	      4.75271555	    -82.46630613	     22.53685494	     69.35673982	     45.50007800	     49.11441788	    -16.78214851	     28.69797461	     21.19547910	    -45.00000000	    -45.00000000	    -45.00000000	      5.69668733	     -9.42248276	    -90.00000000	     17.29899319	     67.98576836	     43.86969899	    -25.83940572	    -24.99999983
      1.18000000	     -4.80737972	     -8.52423965	     90.00000000	     -0.00457226	      0.96451831	      0.02174825	     29.63445158	     20.35834376	     45.00000000	     45.00000000	    -43.73145463	     -5.97783579	      4.95579917	    -82.57271784	     22.46363866	     70.13407864	     45.35416677	     49.11555944	    -16.89992692	     28.79558000	     21.36278690	    -45.00000000	    -45.00000000	    -44.64774652	      5.74636177	     -9.15885442	    -90.00000000	     16.79473071	     68.79500430	     43.66105681	    -25.83011491	    -24.99999983
      1.19000000	     -4.67066587	     -8.32719622	     90.00000000	     -0.00476229	      0.96491750	      0.02188491	     29.70841997	     20.48705749	     45.00000000	     45.00000000	    -43.46232480	     -6.02001748	      5.92150145	    -82.64308953	     23.71112875	     71.04562872	     44.41133195	     47.55728713	    -17.04433815	     28.69804777	     21.19554768	    -45.00000000	    -45.00000000	    -45.00000000	      5.69646112	     -5.75952904	    -90.00000000	     13.47592607	     69.51608353	     40.94000427	    -24.26735810	    -24.99999983
      1.20000000	     -4.64586508	     -8.36026785	     90.00000000	     -0.00436779	      0.96494862	      0.02178397	     29.76635491	     20.58731134	     45.00000000	     45.00000000	    -43.25216622	     -6.04785124	      6.05823769	    -82.51237416	     23.65727821	     71.73857901	     44.31037881	     47.61126863	    -17.09529610	     28.69837635	     21.19545492	    -45.00000000	    -45.00000000	    -45.00000000	      5.69495008	     -5.47067443	    -90.00000000	     13.43646186	     70.66150885	     40.79286379	    -24.36238335	    -24.99999983
      1.21000000	     -4.62998288	     -8.38825134	     90.00000000	     -0.00397543	      0.96495242	      0.02171022	     29.81401831	     20.66912499	     45.00000000	     45.00000000	    -43.07987372	     -6.07000651	      6.25153352	    -82.36336864	     23.62420723	     72.55184773	     44.09197574	     47.54790736	    -17.13153103	     28.69855340	     21.19542172	    -45.00000000	    -45.00000000	    -45.00000000	      5.69271745	     -5.05322287	    -90.00000000	     13.31134353	     71.83940859	     40.51307450	    -24.29197322	    -24.99999983
      1.22000000	     -4.56795149	     -8.30727355	     90.00000000	     -0.00408589	      0.96539964	      0.02177458	     29.74123011	     20.54329566	     45.00000000	     45.00000000	    -43.34427569	     -6.03376155	      7.50220620	    -82.14776648	     24.56103489	     73.71871254	     42.48168145	     45.44706557	    -16.41420327	     28.69916160	     21.19569427	    -45.00000000	    -45.00000000	    -45.00000000	      5.68860453	     -2.53591073	    -90.00000000	     10.97239659	     72.81394205	     38.08206052	    -21.26336110	    -24.99999983
      1.23000000	     -4.55876688	     -8.39573210	     90.00000000	     -0.00359714	      0.96537302	      0.02166388	     29.82370583	     20.68604009	     45.00000000	     45.00000000	    -43.04493211	     -6.07471917	      7.65562175	    -81.82355385	     24.57962241	     74.44617211	     42.37994454	     45.47162358	    -16.39887434	     28.69842462	     21.19513677	    -45.00000000	    -45.00000000	    -45.00000000	      5.69031069	     -2.16619040	    -90.00000000	     10.93104067	     74.03747896	     37.88095234	    -21.25760896	    -24.99999983
      1.24000000	     -4.39633837	     -8.30591218	     90.00000000	     -0.00356963	      0.96549862	      0.02175219	     29.88041560	     20.78683798	     45.00000000	     45.00000000	    -42.83532935	     -6.10679584	      9.41772816	    -81.71153466	     26.25267293	     75.83062310	     40.92743167	     43.15668144	    -14.79083847	     28.69834299	     21.19526717	    -45.00000000	    -45.00000000	    -45.00000000	      5.69266163	      0.84577474	    -90.00000000	      8.00865492	     75.08450064	     35.45136054	    -17.33296068	    -24.99999983
      1.25000000	     -4.40444640	     -8.44719208	     90.00000000	     -0.00293536	      0.96541063	      0.02163533	     29.94543641	     20.90156107	     45.00000000	     45.00000000	    -42.59625456	     -6.13810984	      9.58044073	    -81.21894870	     26.22567828	     76.56804216	     40.79217150	     43.16221460	    -14.79013965	     28.69754670	     21.19547834	    -45.00000000	    -45.00000000	    -45.00000000	      5.69019655	      1.24379969	    -90.00000000	      7.98842086	     76.27646713	     35.28198480	    -17.33123274	    -24.99999983
      1.26000000	     -4.32420709	     -8.39525433	     90.00000000	     -0.00297021	      0.96558905	      0.02159622	     29.77553328	     20.60246282	     45.00000000	     45.00000000	    -43.22021361	     -6.05054668	     11.75370057	    -80.75548403	     27.56183132	     78.16200185	     38.94999128	     40.26127566	    -12.87526912	     28.69831800	     21.19533786	    -45.00000000	    -45.00000000	    -45.00000000	      5.69230381	      4.83227864	    -90.00000000	      4.61356149	     77.28940958	     33.24864016	    -13.11888268	    -24.99999983
      1.27000000	     -4.34049068	     -8.57432346	     90.00000000	     -0.00211063	      0.96529706	      0.02141071	     29.86257524	     20.75516555	     45.00000000	     45.00000000	    -42.90122136	     -6.09550598	     11.88666038	    -80.14579901	     27.56295565	     78.87467506	     38.85003696	     40.25517602	    -12.82549047	     28.69869615	     21.19517296	    -45.00000000	    -45.00000000	    -45.00000000	      5.68940149	      5.26117285	    -90.00000000	      4.57254342	     78.48139436	     33.07853360	    -13.08979321	    -24.99999983
